<svg id="visual" viewBox="0 0 900 600" width="900" height="600" xmlns="http://www.w3.org/2000/svg" xmlns:xlink="http://www.w3.org/1999/xlink" version="1.1"><g stroke-width="1" stroke-linejoin="bevel"><path d="M490 327L560 369L591 335Z" fill="#0941b1" stroke="#0941b1"></path><path d="M591 335L519 222L490 327Z" fill="#003990" stroke="#003990"></path><path d="M490 327L465 432L560 369Z" fill="#00182b" stroke="#00182b"></path><path d="M519 222L434 218L490 327Z" fill="#00357f" stroke="#00357f"></path><path d="M490 327L381 393L465 432Z" fill="#002b5d" stroke="#002b5d"></path><path d="M434 218L391 329L490 327Z" fill="#00254d" stroke="#00254d"></path><path d="M591 335L628 186L519 222Z" fill="#00306e" stroke="#00306e"></path><path d="M519 222L471 133L434 218Z" fill="#00357f" stroke="#00357f"></path><path d="M465 432L562 486L560 369Z" fill="#00306e" stroke="#00306e"></path><path d="M560 369L701 399L591 335Z" fill="#1b44c2" stroke="#1b44c2"></path><path d="M591 335L714 269L628 186Z" fill="#1b44c2" stroke="#1b44c2"></path><path d="M391 329L381 393L490 327Z" fill="#00306e" stroke="#00306e"></path><path d="M465 432L480 522L562 486Z" fill="#003da1" stroke="#003da1"></path><path d="M562 486L701 399L560 369Z" fill="#00357f" stroke="#00357f"></path><path d="M701 399L714 269L591 335Z" fill="#003da1" stroke="#003da1"></path><path d="M593 86L471 133L519 222Z" fill="#00254d" stroke="#00254d"></path><path d="M415 523L480 522L465 432Z" fill="#003990" stroke="#003990"></path><path d="M471 133L435 130L434 218Z" fill="#0941b1" stroke="#0941b1"></path><path d="M434 218L328 262L391 329Z" fill="#0941b1" stroke="#0941b1"></path><path d="M701 399L760 337L714 269Z" fill="#003990" stroke="#003990"></path><path d="M308 230L328 262L434 218Z" fill="#003da1" stroke="#003da1"></path><path d="M391 329L281 393L381 393Z" fill="#00182b" stroke="#00182b"></path><path d="M381 393L415 523L465 432Z" fill="#1b44c2" stroke="#1b44c2"></path><path d="M269 492L415 523L381 393Z" fill="#1b44c2" stroke="#1b44c2"></path><path d="M562 486L709 491L701 399Z" fill="#1b44c2" stroke="#1b44c2"></path><path d="M701 399L799 389L760 337Z" fill="#00101c" stroke="#00101c"></path><path d="M631 600L709 491L562 486Z" fill="#00182b" stroke="#00182b"></path><path d="M726 74L593 86L628 186Z" fill="#003da1" stroke="#003da1"></path><path d="M628 186L593 86L519 222Z" fill="#002b5d" stroke="#002b5d"></path><path d="M471 133L529 0L435 130Z" fill="#1b44c2" stroke="#1b44c2"></path><path d="M732 172L628 186L714 269Z" fill="#002b5d" stroke="#002b5d"></path><path d="M793 184L732 172L714 269Z" fill="#00306e" stroke="#00306e"></path><path d="M317 128L308 230L434 218Z" fill="#1b44c2" stroke="#1b44c2"></path><path d="M328 262L281 393L391 329Z" fill="#002b5d" stroke="#002b5d"></path><path d="M709 491L799 389L701 399Z" fill="#002b5d" stroke="#002b5d"></path><path d="M760 337L793 184L714 269Z" fill="#00182b" stroke="#00182b"></path><path d="M179 290L281 393L328 262Z" fill="#1b44c2" stroke="#1b44c2"></path><path d="M415 523L505 600L480 522Z" fill="#00101c" stroke="#00101c"></path><path d="M480 522L505 600L562 486Z" fill="#00182b" stroke="#00182b"></path><path d="M900 311L793 184L760 337Z" fill="#00101c" stroke="#00101c"></path><path d="M732 172L726 74L628 186Z" fill="#00357f" stroke="#00357f"></path><path d="M505 600L631 600L562 486Z" fill="#003da1" stroke="#003da1"></path><path d="M709 491L818 486L799 389Z" fill="#0941b1" stroke="#0941b1"></path><path d="M383 0L317 128L435 130Z" fill="#00357f" stroke="#00357f"></path><path d="M435 130L317 128L434 218Z" fill="#00357f" stroke="#00357f"></path><path d="M179 290L234 439L281 393Z" fill="#00254d" stroke="#00254d"></path><path d="M789 100L726 74L732 172Z" fill="#0941b1" stroke="#0941b1"></path><path d="M631 600L679 600L709 491Z" fill="#00306e" stroke="#00306e"></path><path d="M584 0L529 0L593 86Z" fill="#00357f" stroke="#00357f"></path><path d="M593 86L529 0L471 133Z" fill="#001f3c" stroke="#001f3c"></path><path d="M281 393L269 492L381 393Z" fill="#00357f" stroke="#00357f"></path><path d="M415 523L363 600L505 600Z" fill="#003990" stroke="#003990"></path><path d="M809 600L818 486L709 491Z" fill="#003990" stroke="#003990"></path><path d="M799 389L900 311L760 337Z" fill="#00306e" stroke="#00306e"></path><path d="M726 74L584 0L593 86Z" fill="#00101c" stroke="#00101c"></path><path d="M179 290L328 262L308 230Z" fill="#0941b1" stroke="#0941b1"></path><path d="M281 393L234 439L269 492Z" fill="#003990" stroke="#003990"></path><path d="M269 492L363 600L415 523Z" fill="#00254d" stroke="#00254d"></path><path d="M793 184L789 100L732 172Z" fill="#003da1" stroke="#003da1"></path><path d="M726 74L733 0L584 0Z" fill="#00254d" stroke="#00254d"></path><path d="M900 162L789 100L793 184Z" fill="#0941b1" stroke="#0941b1"></path><path d="M529 0L383 0L435 130Z" fill="#0941b1" stroke="#0941b1"></path><path d="M900 369L900 311L799 389Z" fill="#002b5d" stroke="#002b5d"></path><path d="M818 486L900 369L799 389Z" fill="#003990" stroke="#003990"></path><path d="M217 106L308 230L317 128Z" fill="#00357f" stroke="#00357f"></path><path d="M165 220L179 290L308 230Z" fill="#00101c" stroke="#00101c"></path><path d="M234 439L214 493L269 492Z" fill="#00254d" stroke="#00254d"></path><path d="M269 492L262 600L363 600Z" fill="#001f3c" stroke="#001f3c"></path><path d="M138 478L214 493L234 439Z" fill="#001f3c" stroke="#001f3c"></path><path d="M793 0L733 0L726 74Z" fill="#00306e" stroke="#00306e"></path><path d="M679 600L809 600L709 491Z" fill="#00101c" stroke="#00101c"></path><path d="M818 486L900 501L900 369Z" fill="#00254d" stroke="#00254d"></path><path d="M307 0L217 106L317 128Z" fill="#00306e" stroke="#00306e"></path><path d="M217 106L165 220L308 230Z" fill="#00306e" stroke="#00306e"></path><path d="M179 290L135 407L234 439Z" fill="#00306e" stroke="#00306e"></path><path d="M900 311L900 162L793 184Z" fill="#001f3c" stroke="#001f3c"></path><path d="M789 100L793 0L726 74Z" fill="#001f3c" stroke="#001f3c"></path><path d="M237 600L262 600L269 492Z" fill="#00101c" stroke="#00101c"></path><path d="M383 0L307 0L317 128Z" fill="#00182b" stroke="#00182b"></path><path d="M809 600L900 501L818 486Z" fill="#00101c" stroke="#00101c"></path><path d="M900 93L793 0L789 100Z" fill="#0941b1" stroke="#0941b1"></path><path d="M214 493L237 600L269 492Z" fill="#003990" stroke="#003990"></path><path d="M100 306L135 407L179 290Z" fill="#00101c" stroke="#00101c"></path><path d="M214 493L87 600L237 600Z" fill="#001f3c" stroke="#001f3c"></path><path d="M900 162L900 93L789 100Z" fill="#0941b1" stroke="#0941b1"></path><path d="M135 407L138 478L234 439Z" fill="#003990" stroke="#003990"></path><path d="M96 212L100 306L165 220Z" fill="#1b44c2" stroke="#1b44c2"></path><path d="M165 220L100 306L179 290Z" fill="#00182b" stroke="#00182b"></path><path d="M0 526L87 600L138 478Z" fill="#00254d" stroke="#00254d"></path><path d="M809 600L900 600L900 501Z" fill="#00254d" stroke="#00254d"></path><path d="M120 102L165 220L217 106Z" fill="#003990" stroke="#003990"></path><path d="M120 102L96 212L165 220Z" fill="#001f3c" stroke="#001f3c"></path><path d="M174 0L120 102L217 106Z" fill="#003990" stroke="#003990"></path><path d="M900 93L900 0L793 0Z" fill="#00357f" stroke="#00357f"></path><path d="M307 0L174 0L217 106Z" fill="#00182b" stroke="#00182b"></path><path d="M0 402L135 407L100 306Z" fill="#00357f" stroke="#00357f"></path><path d="M0 402L138 478L135 407Z" fill="#003da1" stroke="#003da1"></path><path d="M138 478L87 600L214 493Z" fill="#00357f" stroke="#00357f"></path><path d="M0 201L0 314L96 212Z" fill="#00101c" stroke="#00101c"></path><path d="M96 212L0 314L100 306Z" fill="#001f3c" stroke="#001f3c"></path><path d="M0 201L96 212L0 132Z" fill="#00357f" stroke="#00357f"></path><path d="M0 314L0 402L100 306Z" fill="#003990" stroke="#003990"></path><path d="M0 132L96 212L120 102Z" fill="#00357f" stroke="#00357f"></path><path d="M174 0L83 0L120 102Z" fill="#003da1" stroke="#003da1"></path><path d="M83 0L0 132L120 102Z" fill="#00254d" stroke="#00254d"></path><path d="M0 402L0 526L138 478Z" fill="#1b44c2" stroke="#1b44c2"></path><path d="M0 526L0 600L87 600Z" fill="#001f3c" stroke="#001f3c"></path><path d="M83 0L0 0L0 132Z" fill="#00254d" stroke="#00254d"></path></g></svg>